<?xml version="1.0" encoding="UTF-8"?>
<svg version="1.1" xmlns="http://www.w3.org/2000/svg" width="170" height="171">
<path d="M0 0 C26.07 0 52.14 0 79 0 C79 10.23 79 20.46 79 31 C73.39 31 67.78 31 62 31 C62 47.83 62 64.66 62 82 C67.61 82 73.22 82 79 82 C79 92.23 79 102.46 79 113 C52.93 113 26.86 113 0 113 C0 102.77 0 92.54 0 82 C5.94 82 11.88 82 18 82 C18 65.17 18 48.34 18 31 C12.06 31 6.12 31 0 31 C0 20.77 0 10.54 0 0 Z " fill="#EA671A" transform="translate(45,29)"/>
<path d="M0 0 C26.07 0 52.14 0 79 0 C79 10.23 79 20.46 79 31 C73.39 31 67.78 31 62 31 C62 47.83 62 64.66 62 82 C67.61 82 73.22 82 79 82 C79 92.23 79 102.46 79 113 C52.93 113 26.86 113 0 113 C0 102.77 0 92.54 0 82 C5.94 82 11.88 82 18 82 C18 65.17 18 48.34 18 31 C12.06 31 6.12 31 0 31 C0 20.77 0 10.54 0 0 Z M5 4 C5 11.26 5 18.52 5 26 C9.89118777 26.28915269 9.89118777 26.28915269 14.78295898 26.56811523 C19.88888889 26.88888889 19.88888889 26.88888889 21 28 C21.09893778 29.77446009 21.12799092 31.55286251 21.12939453 33.33007812 C21.13254669 34.46795776 21.13569885 35.6058374 21.13894653 36.77819824 C21.1369223 38.01670532 21.13489807 39.2552124 21.1328125 40.53125 C21.13424759 42.42333191 21.13424759 42.42333191 21.13571167 44.3536377 C21.13639375 47.02697138 21.13503529 49.70021437 21.13037109 52.37353516 C21.12467381 55.80706691 21.12795301 59.2405205 21.13394356 62.67404938 C21.13841762 65.93895243 21.13528883 69.20384593 21.1328125 72.46875 C21.13483673 73.70725708 21.13686096 74.94576416 21.13894653 76.22180176 C21.13579437 77.3596814 21.13264221 78.49756104 21.12939453 79.66992188 C21.12859894 80.67728394 21.12780334 81.684646 21.12698364 82.72253418 C21 85 21 85 20 86 C17.47206606 86.23671983 14.97065034 86.4214325 12.4375 86.5625 C8.7559375 86.7790625 8.7559375 86.7790625 5 87 C5 94.26 5 101.52 5 109 C27.77 109 50.54 109 74 109 C74 101.74 74 94.48 74 87 C69.10881223 86.71084731 69.10881223 86.71084731 64.21704102 86.43188477 C59.11111111 86.11111111 59.11111111 86.11111111 58 85 C57.90106222 83.22553991 57.87200908 81.44713749 57.87060547 79.66992188 C57.86745331 78.53204224 57.86430115 77.3941626 57.86105347 76.22180176 C57.8630777 74.98329468 57.86510193 73.7447876 57.8671875 72.46875 C57.86623077 71.20736206 57.86527405 69.94597412 57.86428833 68.6463623 C57.86360625 65.97302862 57.86496471 63.29978563 57.86962891 60.62646484 C57.87532619 57.19293309 57.87204699 53.7594795 57.86605644 50.32595062 C57.86158238 47.06104757 57.86471117 43.79615407 57.8671875 40.53125 C57.86516327 39.29274292 57.86313904 38.05423584 57.86105347 36.77819824 C57.86578171 35.07137878 57.86578171 35.07137878 57.87060547 33.33007812 C57.87140106 32.32271606 57.87219666 31.315354 57.87301636 30.27746582 C58 28 58 28 59 27 C61.52793394 26.76328017 64.02934966 26.5785675 66.5625 26.4375 C69.016875 26.293125 71.47125 26.14875 74 26 C74 18.74 74 11.48 74 4 C51.23 4 28.46 4 5 4 Z " fill="#1A2849" transform="translate(45,29)"/>
</svg>
